<svg width="33" height="33" viewBox="0 0 33 33" fill="none" xmlns="http://www.w3.org/2000/svg">
<path d="M4.125 8.25H6.875H28.875" stroke="#844685" stroke-width="2" stroke-linecap="round" stroke-linejoin="round"/>
<path d="M27.125 8.25C27.125 7.69771 26.6773 7.25 26.125 7.25C25.5727 7.25 25.125 7.69771 25.125 8.25H27.125ZM7.875 8.25C7.875 7.69771 7.42728 7.25 6.875 7.25C6.32272 7.25 5.875 7.69771 5.875 8.25H7.875ZM10 8.25C10 8.80228 10.4477 9.25 11 9.25C11.5523 9.25 12 8.80228 12 8.25H10ZM21 8.25C21 8.80228 21.4477 9.25 22 9.25C22.5523 9.25 23 8.80228 23 8.25H21ZM25.125 8.25V27.5H27.125V8.25H25.125ZM25.125 27.5C25.125 28.4665 24.3415 29.25 23.375 29.25V31.25C25.4461 31.25 27.125 29.5711 27.125 27.5H25.125ZM23.375 29.25H9.625V31.25H23.375V29.25ZM9.625 29.25C8.6585 29.25 7.875 28.4665 7.875 27.5H5.875C5.875 29.5711 7.55393 31.25 9.625 31.25V29.25ZM7.875 27.5V8.25H5.875V27.5H7.875ZM12 8.25V5.5H10V8.25H12ZM12 5.5C12 4.5335 12.7835 3.75 13.75 3.75V1.75C11.6789 1.75 10 3.42893 10 5.5H12ZM13.75 3.75H19.25V1.75H13.75V3.75ZM19.25 3.75C20.2165 3.75 21 4.5335 21 5.5H23C23 3.42893 21.3211 1.75 19.25 1.75V3.75ZM21 5.5V8.25H23V5.5H21Z" fill="#844685"/>
<path d="M13.75 15.125V23.375" stroke="#844685" stroke-width="2" stroke-linecap="round" stroke-linejoin="round"/>
<path d="M19.25 15.125V23.375" stroke="#844685" stroke-width="2" stroke-linecap="round" stroke-linejoin="round"/>
</svg>
