<svg width="70" height="70" viewBox="0 0 70 70" fill="none" xmlns="http://www.w3.org/2000/svg">
<path d="M34.9998 5.42798C18.7035 5.42798 5.44519 18.694 5.44519 35.0001C5.44519 51.3067 18.7035 64.5721 34.9998 64.5721C51.2965 64.5721 64.5553 51.3067 64.5553 35.0001C64.5548 18.694 51.296 5.42798 34.9998 5.42798ZM34.9998 61.6555C20.3106 61.6555 8.36018 49.6981 8.36018 35.0001C8.36018 20.3025 20.3106 8.34465 34.9998 8.34465C49.6889 8.34465 61.6403 20.3025 61.6403 35.0001C61.6398 49.6981 49.6889 61.6555 34.9998 61.6555Z" fill="#FAF4FF"/>
<path d="M44.1096 17.6479H37.6986C37.6835 17.6479 37.6689 17.6484 37.6548 17.6499C31.1821 17.6703 30.3368 22.1926 30.3334 26.1452C30.3246 26.1821 30.3198 26.22 30.3198 26.2594V29.0341H25.8899C25.6218 29.0341 25.4041 29.2519 25.4041 29.5202V36.3632C25.4041 36.632 25.6218 36.8493 25.8899 36.8493H30.3198V51.8658C30.3198 52.1346 30.5374 52.3519 30.8056 52.3519H37.2705C37.5392 52.3519 37.7564 52.1346 37.7564 51.8658V36.8498H44.1091C44.3778 36.8498 44.5949 36.6325 44.5949 36.3637V29.5207C44.5949 29.2524 44.3778 29.0346 44.1091 29.0346H37.2705V25.3562H44.1091C44.3778 25.3562 44.5949 25.1384 44.5949 24.8701V18.1341C44.5954 17.8657 44.3778 17.6479 44.1096 17.6479Z" fill="#FAF4FF"/>
</svg>
