<svg width="58" height="58" viewBox="0 0 58 58" fill="none" xmlns="http://www.w3.org/2000/svg">
<path d="M28.7261 0.000365992C44.6745 -0.0802981 57.7997 13.1832 57.4194 29.3967C57.0737 44.8496 44.2712 57.6406 28.3228 57.4447C12.5817 57.2488 -0.405173 44.1351 0.00967078 27.9447C0.401468 12.5609 13.0888 -0.0687746 28.7261 0.000365992ZM3.50127 28.7629C3.63955 43.2017 15.3474 54.3218 29.1755 54.0683C42.5773 53.8263 53.9163 42.8906 53.9048 28.7052C53.9048 14.2549 42.0933 3.10017 28.2306 3.36521C14.8173 3.63025 3.58194 14.5775 3.50127 28.7629Z" fill="#FAF4FF"/>
<path d="M45.193 16.3406C45.193 24.5337 45.193 32.6923 45.193 40.8855C34.2343 40.8855 23.2755 40.8855 12.2821 40.8855C12.2821 32.7269 12.2821 24.5568 12.2821 16.3406C23.2178 16.3406 34.1766 16.3406 45.193 16.3406ZM28.8067 31.3326C28.0346 30.6873 27.2971 30.0996 26.6057 29.4658C26.2831 29.1662 26.0757 29.1892 25.7415 29.4542C23.0335 31.6552 20.3024 33.8332 17.5944 36.0341C17.4446 36.1494 17.3524 36.4144 17.3409 36.6103C17.3178 37.7396 17.3524 38.8804 17.3178 40.0097C17.2948 40.5398 17.4561 40.6896 17.9862 40.6781C25.269 40.655 32.5403 40.6666 39.8231 40.6666C40.019 40.6666 40.2264 40.6666 40.4569 40.6666C40.4569 39.0994 40.4684 37.6128 40.4454 36.1378C40.4454 35.9996 40.3417 35.8037 40.2149 35.723C37.2073 33.5796 34.1766 31.4363 31.146 29.2929C30.3739 29.9728 29.6134 30.6296 28.8067 31.3326ZM28.7491 26.5158C32.16 23.2085 35.5134 19.9474 38.9819 16.5826C32.16 16.5826 25.5456 16.5826 18.9311 16.5826C22.1807 19.8667 25.3958 23.1279 28.7491 26.5158ZM40.4223 34.974C40.4223 30.3646 40.4223 25.8474 40.4223 21.2496C37.4723 23.8078 34.58 26.3084 31.6645 28.8435C34.626 30.9177 37.4954 32.9228 40.4223 34.974ZM25.6608 28.6591C22.9067 26.3199 20.1987 24.0152 17.3985 21.6298C17.3985 26.2277 17.3985 30.6873 17.3985 35.2621C20.1872 33.038 22.9067 30.8601 25.6608 28.6591Z" fill="#FAF4FF"/>
</svg>
