<svg width="70" height="70" viewBox="0 0 70 70" fill="none" xmlns="http://www.w3.org/2000/svg">
<path d="M34.9998 5.4248C18.7035 5.4248 5.44519 18.6831 5.44519 34.9799C5.44519 51.2766 18.7035 64.5349 34.9998 64.5349C51.2965 64.5349 64.5548 51.2766 64.5548 34.9799C64.5548 18.6831 51.296 5.4248 34.9998 5.4248ZM34.9998 61.6199C20.3107 61.6199 8.36018 49.669 8.36018 34.9799C8.36018 20.2908 20.3107 8.33979 34.9998 8.33979C49.6889 8.33979 61.6398 20.2908 61.6398 34.9799C61.6398 49.669 49.6889 61.6199 34.9998 61.6199Z" fill="#FAF4FF"/>
<path d="M44.2476 20.7456H25.752C23.024 20.7456 20.8043 22.9649 20.8043 25.6933V44.2739C20.8043 47.0019 23.0235 49.2216 25.752 49.2216H44.2471C46.975 49.2216 49.1948 47.0023 49.1948 44.2739V25.6928C49.1948 22.9649 46.9755 20.7456 44.2476 20.7456ZM39.278 34.9309C39.278 37.2901 37.359 39.2091 34.9998 39.2091C32.6406 39.2091 30.7215 37.2901 30.7215 34.9309C30.7215 33.7605 31.1947 32.6995 31.9585 31.9265H38.0406C38.8053 32.6995 39.278 33.7605 39.278 34.9309ZM40.5183 24.7042H44.8519V29.1685H40.5183V24.7042ZM44.2476 46.3062H25.752C24.6312 46.3062 23.7192 45.3942 23.7192 44.2734V31.9265H28.4726C28.0495 32.8423 27.8065 33.8577 27.8065 34.9309C27.8065 38.8977 31.0334 42.1241 34.9998 42.1241C38.9661 42.1241 42.193 38.8972 42.193 34.9309C42.193 33.8577 41.9501 32.8423 41.5269 31.9265H46.2798V44.2734C46.2798 45.3942 45.3679 46.3062 44.2476 46.3062Z" fill="#FAF4FF"/>
</svg>
