<svg width="70" height="70" viewBox="0 0 70 70" fill="none" xmlns="http://www.w3.org/2000/svg">
<path d="M34.9998 5.4248C18.7035 5.4248 5.44519 18.6831 5.44519 34.9799C5.44519 51.2771 18.7035 64.5349 34.9998 64.5349C51.2965 64.5349 64.5553 51.2771 64.5553 34.9799C64.5548 18.6831 51.296 5.4248 34.9998 5.4248ZM34.9998 61.6199C20.3106 61.6199 8.36018 49.6694 8.36018 34.9799C8.36018 20.2908 20.3106 8.33979 34.9998 8.33979C49.6889 8.33979 61.6403 20.2908 61.6403 34.9799C61.6398 49.6694 49.6889 61.6199 34.9998 61.6199Z" fill="#FAF4FF"/>
<path d="M26.8281 28.7175H19.9885V46.5641H26.8281V28.7175Z" fill="#FAF4FF"/>
<path d="M23.3403 25.8705C25.2521 25.8705 26.8019 24.4567 26.8019 22.7126C26.8019 20.9685 25.2521 19.5547 23.3403 19.5547C21.4286 19.5547 19.8788 20.9685 19.8788 22.7126C19.8788 24.4567 21.4286 25.8705 23.3403 25.8705Z" fill="#FAF4FF"/>
<path d="M44.0202 28.3142C42.6195 28.3142 41.4326 28.5693 40.4571 29.0789C39.4825 29.589 38.5196 30.4373 37.5669 31.6247V28.7174H31.1976V46.564H38.0372V37.9934C38.0372 36.3688 38.2951 35.2436 38.8106 34.6159C39.3261 33.9887 39.9975 33.6749 40.8268 33.6749C41.5774 33.6749 42.1599 33.9076 42.5748 34.3725C42.9897 34.8375 43.1962 35.6299 43.1962 36.7507V46.564H50.0697V35.2213C50.0697 32.8684 49.5344 31.1291 48.4641 30.003C47.3952 28.8768 45.913 28.3142 44.0202 28.3142Z" fill="#FAF4FF"/>
</svg>
